<!-- Generated by IcoMoon.io -->
<svg version="1.1" xmlns="http://www.w3.org/2000/svg" width="512" height="512" viewBox="0 0 512 512">
<title></title>
<g id="icomoon-ignore">
</g>
<path d="M480.4 254.5c-13.2 3-25.9 4.4-37.4 4.4-64.6 0-114.3-45.1-114.3-123.6 0-38.5 14.9-58.4 35.9-58.4 20 0 33.3 17.9 33.3 54.3 0 20.7-5.5 43.4-9.6 56.8 0 0 19.9 34.7 74.3 24.1 11.6-25.7 17.8-58.9 17.8-88 0-78.4-40-124.1-113.3-124.1-75.4 0-119.5 57.9-119.5 134.3 0 75.7 35.4 140.6 93.7 170.2-24.5 49.1-55.7 92.3-88.3 124.9-59-71.4-112.4-166.6-134.3-352.5h-87.1c40.3 309.6 160.2 408.2 192 427.1 17.9 10.8 33.4 10.3 49.8 1 25.8-14.6 103.1-92 146-182.5 18 0 39.6-2.1 61.1-7v-61z"></path>
</svg>


